<svg width="200" height="36" viewBox="0 0 200 36" fill="none" xmlns="http://www.w3.org/2000/svg">
<rect width="200" height="36" rx="4" fill="#F4F4F4"/>
<path d="M11.804 25.076H13.74V18.234H20.846V25.076H22.782V10.292H20.846V16.606H13.74V10.292H11.804V25.076ZM29.9559 25.274C31.7599 25.274 33.0139 24.702 33.6519 24.218V22.832C32.6619 23.36 31.7159 23.668 30.2639 23.668C28.0859 23.668 26.8099 22.744 26.6779 20.148H33.9819V19.092C33.9819 15.66 32.5519 13.922 29.5599 13.922C27.0079 13.922 24.7419 15.638 24.7419 19.444V19.774C24.7419 23.14 26.5019 25.274 29.9559 25.274ZM29.4719 15.44C31.1219 15.44 32.0019 16.342 32.0019 18.63H26.6779C26.8539 16.122 28.2399 15.44 29.4719 15.44ZM35.679 25.076H37.571V9.324H35.679V25.076ZM40.0034 25.076H41.8954V9.324H40.0034V25.076ZM48.5737 25.274C51.5657 25.274 53.5897 23.184 53.5897 19.752V19.4C53.5897 15.968 51.7197 13.922 48.5957 13.922C45.6037 13.922 43.6017 16.034 43.6017 19.466V19.84C43.6017 23.25 45.4277 25.274 48.5737 25.274ZM48.6177 23.734C46.9237 23.734 45.5377 22.832 45.5377 19.884V19.268C45.5377 16.826 46.6377 15.462 48.5517 15.462C50.2457 15.462 51.6317 16.408 51.6317 19.356V19.95C51.6317 22.392 50.5317 23.734 48.6177 23.734ZM54.2353 28.046H55.8633L57.2273 23.602H55.0053L54.2353 28.046ZM67.1017 25.208C69.9397 25.208 71.1277 23.448 71.1277 21.248V10.292H69.1917V21.182C69.1917 22.7 68.5537 23.558 66.9257 23.558C65.8037 23.558 64.9237 23.338 64.2637 23.074V24.636C65.0777 25.032 65.8477 25.208 67.1017 25.208ZM78.2089 25.274C80.0129 25.274 81.2669 24.702 81.9049 24.218V22.832C80.9149 23.36 79.9689 23.668 78.5169 23.668C76.3389 23.668 75.0629 22.744 74.9309 20.148H82.2349V19.092C82.2349 15.66 80.8049 13.922 77.8129 13.922C75.2609 13.922 72.9949 15.638 72.9949 19.444V19.774C72.9949 23.14 74.7549 25.274 78.2089 25.274ZM77.7249 15.44C79.3749 15.44 80.2549 16.342 80.2549 18.63H74.9309C75.1069 16.122 76.4929 15.44 77.7249 15.44ZM83.888 25.076H85.758V16.276C86.55 15.902 87.672 15.55 88.64 15.55C90.356 15.55 90.774 16.078 90.774 17.332V25.076H92.622V16.936C92.622 14.824 91.61 13.922 89.454 13.922C88.112 13.922 86.704 14.428 85.78 15.088H85.67V14.142H83.888V25.076ZM94.894 25.076H96.764V16.276C97.556 15.902 98.678 15.55 99.646 15.55C101.362 15.55 101.78 16.078 101.78 17.332V25.076H103.628V16.936C103.628 14.824 102.616 13.922 100.46 13.922C99.118 13.922 97.71 14.428 96.786 15.088H96.676V14.142H94.894V25.076ZM105.944 25.076H107.836V14.142H105.944V25.076ZM105.944 11.986H107.858V10.028H105.944V11.986ZM114.756 25.274C116.56 25.274 117.814 24.702 118.452 24.218V22.832C117.462 23.36 116.516 23.668 115.064 23.668C112.886 23.668 111.61 22.744 111.478 20.148H118.782V19.092C118.782 15.66 117.352 13.922 114.36 13.922C111.808 13.922 109.542 15.638 109.542 19.444V19.774C109.542 23.14 111.302 25.274 114.756 25.274ZM114.272 15.44C115.922 15.44 116.802 16.342 116.802 18.63H111.478C111.654 16.122 113.04 15.44 114.272 15.44ZM119.908 25.582H122.042V23.426H119.908V25.582Z" fill="black"/>
<path d="M128.65 25.076H130.036V9.324H128.65V25.076Z" fill="#F41882"/>
</svg>
